<svg id="folder" xmlns="http://www.w3.org/2000/svg" width="16" height="12.653" viewBox="0 0 16 12.653">
  <g id="Group_34" data-name="Group 34" transform="translate(0 1.73)">
    <g id="Group_33" data-name="Group 33" transform="translate(0 0)">
      <path id="Path_25" data-name="Path 25" d="M12.966,86.746H7.217L6.074,85.389a.2.2,0,0,0-.156-.07H1.279A1.288,1.288,0,0,0,0,86.606v8.349a1.288,1.288,0,0,0,1.287,1.286H12.966a1.288,1.288,0,0,0,1.287-1.286V88.032A1.288,1.288,0,0,0,12.966,86.746Z" transform="translate(0 -85.319)"/>
    </g>
  </g>
  <g id="Group_36" data-name="Group 36" transform="translate(1.761)">
    <g id="Group_35" data-name="Group 35">
      <path id="Path_26" data-name="Path 26" d="M56.359,44.106h-5.75l-1.143-1.357a.2.2,0,0,0-.156-.07H44.673A1.287,1.287,0,0,0,43.4,43.79h4.229a.749.749,0,0,1,.575.267l.976,1.159h5.491a1.842,1.842,0,0,1,1.84,1.838v6.534a1.286,1.286,0,0,0,1.128-1.275V45.39A1.288,1.288,0,0,0,56.359,44.106Z" transform="translate(-43.4 -42.679)"/>
    </g>
  </g>
</svg>
