<svg id="google-docs" xmlns="http://www.w3.org/2000/svg" width="16" height="21.005" viewBox="0 0 16 21.005">
  <path id="Path_23" data-name="Path 23" d="M62.846,21.005H75.154A1.848,1.848,0,0,0,77,19.159V6.154H72.692a1.848,1.848,0,0,1-1.846-1.846V0h-8A1.848,1.848,0,0,0,61,1.846V19.159A1.848,1.848,0,0,0,62.846,21.005ZM65.308,8.656h7.385a.615.615,0,1,1,0,1.231H65.308a.615.615,0,0,1,0-1.231Zm0,2.462h7.385a.615.615,0,1,1,0,1.231H65.308a.615.615,0,0,1,0-1.231Zm0,2.462h7.385a.615.615,0,1,1,0,1.231H65.308a.615.615,0,0,1,0-1.231Zm0,2.462h4.923a.615.615,0,0,1,0,1.231H65.308a.615.615,0,0,1,0-1.231Z" transform="translate(-61)"/>
  <path id="Path_24" data-name="Path 24" d="M331.64,13.537h4.107L331,8.789V12.9A.641.641,0,0,0,331.64,13.537Z" transform="translate(-320.123 -8.414)"/>
</svg>
