<svg id="home-button-for-interface" xmlns="http://www.w3.org/2000/svg" width="16.022" height="13.001" viewBox="0 0 16.022 13.001">
  <g id="Group_6" data-name="Group 6" transform="translate(0)">
    <path id="Path_5" data-name="Path 5" d="M15.861,13.227,12.138,9.5V7.049a.554.554,0,0,0-1.108,0V8.4L8.4,5.77a.553.553,0,0,0-.783,0L.163,13.227a.554.554,0,0,0,.783.783L8.012,6.945l7.066,7.066a.558.558,0,0,0,.392.163.554.554,0,0,0,.391-.946Z" transform="translate(-0.001 -5.608)"/>
    <path id="Path_6" data-name="Path 6" d="M18.533,19.882,12.66,14.009a.554.554,0,0,0-.783,0L6,19.882a.549.549,0,0,0-.152.286,1.338,1.338,0,0,0-.025.254v2.866a1.341,1.341,0,0,0,1.339,1.339h2.866a1.342,1.342,0,0,0,1.339-1.34v-2.1a.992.992,0,0,1,.9-.986.992.992,0,0,1,.9.986v2.1a1.342,1.342,0,0,0,1.339,1.34h2.866a1.341,1.341,0,0,0,1.339-1.34V20.423a1.324,1.324,0,0,0-.025-.254A.555.555,0,0,0,18.533,19.882Z" transform="translate(-4.258 -11.627)"/>
  </g>
</svg>
