<svg id="infographic" xmlns="http://www.w3.org/2000/svg" width="16" height="16" viewBox="0 0 16 16">
  <path id="Path_7" data-name="Path 7" d="M17.733,2H2.267A.267.267,0,0,0,2,2.267v1.6a.267.267,0,0,0,.267.267H2.8v11.2H2.267A.267.267,0,0,0,2,15.6v1.067a.267.267,0,0,0,.267.267h6.4V17.2a.8.8,0,0,0,.8.8h1.067a.8.8,0,0,0,.8-.8v-.267h6.4A.267.267,0,0,0,18,16.667V15.6a.267.267,0,0,0-.267-.267H17.2V4.133h.533A.267.267,0,0,0,18,3.867v-1.6A.267.267,0,0,0,17.733,2ZM10.8,17.2a.267.267,0,0,1-.267.267H9.467A.267.267,0,0,1,9.2,17.2v-.267h1.6Zm6.667-.8H2.533v-.533H17.467Zm-.8-1.067H3.333V4.133H16.667Zm.8-11.733H2.533V2.533H17.467Z" transform="translate(-2 -2)"/>
  <path id="Path_8" data-name="Path 8" d="M25.923,36.837a.83.83,0,0,0,.06.308l-1.048.918a.82.82,0,0,0-.87.03l-.973-.73a.825.825,0,0,0,.042-.248.837.837,0,1,0-1.613.308l-1.048.918a.826.826,0,0,0-.407-.11.835.835,0,0,0-.785.558H17v.558h2.282a.834.834,0,1,0,1.561-.587l1.047-.918a.82.82,0,0,0,.87-.03l.973.73a.825.825,0,0,0-.042.248.837.837,0,1,0,1.613-.308l1.048-.918a.826.826,0,0,0,.407.11.837.837,0,1,0-.837-.837Zm-5.856,2.51a.279.279,0,1,1,.279-.279A.279.279,0,0,1,20.067,39.346ZM22.3,37.394a.279.279,0,1,1,.279-.279A.279.279,0,0,1,22.3,37.394Zm2.231,1.673a.279.279,0,1,1,.279-.279A.279.279,0,0,1,24.529,39.067Zm2.51-2.231a.279.279,0,1,1-.279-.279A.279.279,0,0,1,27.039,36.837Z" transform="translate(-13.549 -27.059)"/>
  <path id="Path_9" data-name="Path 9" d="M14.952,19.9A1.952,1.952,0,1,0,13,17.952,1.954,1.954,0,0,0,14.952,19.9Zm.279-3.318a1.385,1.385,0,0,1,.489.2l-.489.489Zm-.558,0v1.366a.279.279,0,0,0,.476.2l.965-.965a1.393,1.393,0,1,1-1.441-.6Z" transform="translate(-10.107 -12.319)"/>
  <path id="Path_10" data-name="Path 10" d="M12.067,18.135a3.067,3.067,0,0,0,0-6.135v.558a2.51,2.51,0,1,1-2.51,2.51H9A3.071,3.071,0,0,0,12.067,18.135Z" transform="translate(-7.048 -9.404)"/>
  <path id="Path_11" data-name="Path 11" d="M33.952,18.3h4.183v-.558h-.558V13.279A.279.279,0,0,0,37.3,13H36.183a.279.279,0,0,0-.279.279v1.952h-.558v-.558a.279.279,0,0,0-.279-.279H33.952a.279.279,0,0,0-.279.279v1.394h-.837a.279.279,0,0,0-.279.279v1.394H32V18.3h1.952Zm2.51-4.741h.558v4.183h-.558V13.558ZM35.9,15.789v1.952h-.558V15.789Zm-1.673-.837h.558v2.789h-.558V14.952Zm-1.115,1.673h.558v1.115h-.558Z" transform="translate(-24.366 -10.129)"/>
  <path id="Path_12" data-name="Path 12" d="M13,46h.558v.558H13Z" transform="translate(-10.071 -34.285)"/>
  <path id="Path_13" data-name="Path 13" d="M9,46h.558v.558H9Z" transform="translate(-7.048 -34.285)"/>
</svg>
