<svg id="stats" xmlns="http://www.w3.org/2000/svg" width="16.092" height="16.092" viewBox="0 0 16.092 16.092">
  <g id="Group_30" data-name="Group 30" transform="translate(0 6.046)">
    <g id="Group_29" data-name="Group 29">
      <path id="Path_21" data-name="Path 21" d="M15.856,201.95H14.329v-9.337a.236.236,0,0,0-.236-.236H11.573a.236.236,0,0,0-.236.236v9.337h-1.8v-6.566a.236.236,0,0,0-.236-.236H6.787a.236.236,0,0,0-.236.236v6.566h-1.8v-5.306a.236.236,0,0,0-.236-.236H2a.236.236,0,0,0-.236.236v5.306H.236a.236.236,0,0,0,0,.472h15.62a.236.236,0,1,0,0-.472Zm-11.573,0H2.236v-5.07H4.283v5.07Zm4.787,0H7.023v-6.33H9.07Zm4.787,0H11.81v-9.1h2.047v9.1Z" transform="translate(0 -192.376)"/>
    </g>
  </g>
  <g id="Group_32" data-name="Group 32" transform="translate(0.252)">
    <g id="Group_31" data-name="Group 31">
      <path id="Path_22" data-name="Path 22" d="M23.1.185a.74.74,0,0,0-.582-.18L20.506.257a.74.74,0,0,0,.184,1.469l.164-.021a17.864,17.864,0,0,1-7.493,5.1A17.085,17.085,0,0,1,8.734,7.81a.74.74,0,0,0,.023,1.48H8.78a18.1,18.1,0,0,0,5.044-1.082,19.849,19.849,0,0,0,4.428-2.226.236.236,0,0,0-.264-.392,19.373,19.373,0,0,1-4.323,2.173,17.583,17.583,0,0,1-4.9,1.055H8.757a.268.268,0,0,1-.008-.535,17.457,17.457,0,0,0,4.772-1.037,18.274,18.274,0,0,0,8.082-5.7.238.238,0,0,0-.213-.382l-.758.095a.268.268,0,1,1-.066-.531L22.581.474a.27.27,0,0,1,.3.266V2.755a.268.268,0,0,1-.535,0V2.144a.236.236,0,0,0-.419-.149A18.262,18.262,0,0,1,18.941,4.9a.236.236,0,0,0,.289.374,18.72,18.72,0,0,0,2.644-2.487.74.74,0,0,0,1.479-.033V.74A.741.741,0,0,0,23.1.185Z" transform="translate(-8.017 0)"/>
    </g>
  </g>
</svg>
