<svg id="user" xmlns="http://www.w3.org/2000/svg" width="16.037" height="19.222" viewBox="0 0 16.037 19.222">
  <path id="Path_1" data-name="Path 1" d="M91.662,9.26A4.48,4.48,0,0,0,94.935,7.9,4.48,4.48,0,0,0,96.291,4.63a4.48,4.48,0,0,0-1.356-3.273,4.629,4.629,0,0,0-6.547,0A4.48,4.48,0,0,0,87.032,4.63,4.48,4.48,0,0,0,88.388,7.9,4.481,4.481,0,0,0,91.662,9.26Zm0,0" transform="translate(-83.764 0)"/>
  <path id="Path_2" data-name="Path 2" d="M16,252.812a11.436,11.436,0,0,0-.156-1.215,9.568,9.568,0,0,0-.3-1.221,6.033,6.033,0,0,0-.5-1.139,4.3,4.3,0,0,0-.757-.987,3.337,3.337,0,0,0-1.087-.683,3.758,3.758,0,0,0-1.388-.251,1.409,1.409,0,0,0-.752.319c-.226.147-.489.317-.784.505a4.493,4.493,0,0,1-1.014.447,3.938,3.938,0,0,1-2.481,0,4.48,4.48,0,0,1-1.014-.447c-.292-.186-.556-.357-.785-.506a1.407,1.407,0,0,0-.752-.319,3.754,3.754,0,0,0-1.388.252,3.335,3.335,0,0,0-1.088.683,4.3,4.3,0,0,0-.757.986,6.044,6.044,0,0,0-.5,1.139,9.592,9.592,0,0,0-.3,1.221,11.4,11.4,0,0,0-.156,1.215c-.026.368-.038.75-.038,1.135a3.192,3.192,0,0,0,.948,2.415,3.413,3.413,0,0,0,2.443.891h9.256a3.412,3.412,0,0,0,2.443-.891,3.19,3.19,0,0,0,.948-2.415c0-.387-.013-.769-.039-1.135Zm0,0" transform="translate(0 -238.031)"/>
</svg>
